G75*
G70*
%OFA0B0*%
%FSLAX24Y24*%
%IPPOS*%
%LPD*%
%AMOC8*
5,1,8,0,0,1.08239X$1,22.5*
%
%ADD10C,0.0000*%
%ADD11C,0.0050*%
%ADD12C,0.0120*%
%ADD13C,0.0060*%
%ADD14R,0.0240X0.0340*%
%ADD15C,0.0040*%
D10*
X000746Y000101D02*
X000746Y031097D01*
X040116Y031097D01*
X040116Y000101D01*
X000746Y000101D01*
X002596Y035501D02*
X002598Y035551D01*
X002604Y035601D01*
X002614Y035651D01*
X002627Y035699D01*
X002644Y035747D01*
X002665Y035793D01*
X002689Y035837D01*
X002717Y035879D01*
X002748Y035919D01*
X002782Y035956D01*
X002819Y035991D01*
X002858Y036022D01*
X002899Y036051D01*
X002943Y036076D01*
X002989Y036098D01*
X003036Y036116D01*
X003084Y036130D01*
X003133Y036141D01*
X003183Y036148D01*
X003233Y036151D01*
X003284Y036150D01*
X003334Y036145D01*
X003384Y036136D01*
X003432Y036124D01*
X003480Y036107D01*
X003526Y036087D01*
X003571Y036064D01*
X003614Y036037D01*
X003654Y036007D01*
X003692Y035974D01*
X003727Y035938D01*
X003760Y035899D01*
X003789Y035858D01*
X003815Y035815D01*
X003838Y035770D01*
X003857Y035723D01*
X003872Y035675D01*
X003884Y035626D01*
X003892Y035576D01*
X003896Y035526D01*
X003896Y035476D01*
X003892Y035426D01*
X003884Y035376D01*
X003872Y035327D01*
X003857Y035279D01*
X003838Y035232D01*
X003815Y035187D01*
X003789Y035144D01*
X003760Y035103D01*
X003727Y035064D01*
X003692Y035028D01*
X003654Y034995D01*
X003614Y034965D01*
X003571Y034938D01*
X003526Y034915D01*
X003480Y034895D01*
X003432Y034878D01*
X003384Y034866D01*
X003334Y034857D01*
X003284Y034852D01*
X003233Y034851D01*
X003183Y034854D01*
X003133Y034861D01*
X003084Y034872D01*
X003036Y034886D01*
X002989Y034904D01*
X002943Y034926D01*
X002899Y034951D01*
X002858Y034980D01*
X002819Y035011D01*
X002782Y035046D01*
X002748Y035083D01*
X002717Y035123D01*
X002689Y035165D01*
X002665Y035209D01*
X002644Y035255D01*
X002627Y035303D01*
X002614Y035351D01*
X002604Y035401D01*
X002598Y035451D01*
X002596Y035501D01*
D11*
X012990Y026421D02*
X013216Y026195D01*
X013216Y026496D01*
X013441Y026421D02*
X012990Y026421D01*
X013066Y026035D02*
X013216Y026035D01*
X013291Y025960D01*
X013291Y025735D01*
X013441Y025735D02*
X012990Y025735D01*
X012990Y025960D01*
X013066Y026035D01*
X012990Y025575D02*
X012990Y025425D01*
X012990Y025500D02*
X013366Y025500D01*
X013441Y025425D01*
X013441Y025350D01*
X013366Y025275D01*
X014990Y025425D02*
X014990Y025575D01*
X014990Y025500D02*
X015366Y025500D01*
X015441Y025425D01*
X015441Y025350D01*
X015366Y025275D01*
X015441Y025735D02*
X014990Y025735D01*
X014990Y025960D01*
X015066Y026035D01*
X015216Y026035D01*
X015291Y025960D01*
X015291Y025735D01*
X015366Y026195D02*
X015441Y026270D01*
X015441Y026421D01*
X015366Y026496D01*
X015216Y026496D01*
X015141Y026421D01*
X015141Y026345D01*
X015216Y026195D01*
X014990Y026195D01*
X014990Y026496D01*
X016990Y026496D02*
X017066Y026345D01*
X017216Y026195D01*
X017216Y026421D01*
X017291Y026496D01*
X017366Y026496D01*
X017441Y026421D01*
X017441Y026270D01*
X017366Y026195D01*
X017216Y026195D01*
X017216Y026035D02*
X017291Y025960D01*
X017291Y025735D01*
X017441Y025735D02*
X016990Y025735D01*
X016990Y025960D01*
X017066Y026035D01*
X017216Y026035D01*
X016990Y025575D02*
X016990Y025425D01*
X016990Y025500D02*
X017366Y025500D01*
X017441Y025425D01*
X017441Y025350D01*
X017366Y025275D01*
X018990Y025425D02*
X018990Y025575D01*
X018990Y025500D02*
X019366Y025500D01*
X019441Y025425D01*
X019441Y025350D01*
X019366Y025275D01*
X019441Y025735D02*
X018990Y025735D01*
X018990Y025960D01*
X019066Y026035D01*
X019216Y026035D01*
X019291Y025960D01*
X019291Y025735D01*
X019441Y026195D02*
X019441Y026496D01*
X019441Y026345D02*
X018990Y026345D01*
X019141Y026195D01*
X020990Y026270D02*
X021066Y026195D01*
X020990Y026270D02*
X020990Y026421D01*
X021066Y026496D01*
X021141Y026496D01*
X021441Y026195D01*
X021441Y026496D01*
X021216Y026035D02*
X021291Y025960D01*
X021291Y025735D01*
X021441Y025735D02*
X020990Y025735D01*
X020990Y025960D01*
X021066Y026035D01*
X021216Y026035D01*
X020990Y025575D02*
X020990Y025425D01*
X020990Y025500D02*
X021366Y025500D01*
X021441Y025425D01*
X021441Y025350D01*
X021366Y025275D01*
X022990Y025425D02*
X022990Y025575D01*
X022990Y025500D02*
X023366Y025500D01*
X023441Y025425D01*
X023441Y025350D01*
X023366Y025275D01*
X023441Y025735D02*
X022990Y025735D01*
X022990Y025960D01*
X023066Y026035D01*
X023216Y026035D01*
X023291Y025960D01*
X023291Y025735D01*
X023366Y026195D02*
X023441Y026270D01*
X023441Y026421D01*
X023366Y026496D01*
X023291Y026496D01*
X023216Y026421D01*
X023216Y026345D01*
X023216Y026421D02*
X023141Y026496D01*
X023066Y026496D01*
X022990Y026421D01*
X022990Y026270D01*
X023066Y026195D01*
X023162Y022296D02*
X023462Y022296D01*
X023462Y022221D01*
X023162Y021921D01*
X023162Y021846D01*
X023001Y022071D02*
X022926Y021996D01*
X022701Y021996D01*
X022701Y021846D02*
X022701Y022296D01*
X022926Y022296D01*
X023001Y022221D01*
X023001Y022071D01*
X022541Y022296D02*
X022391Y022296D01*
X022466Y022296D02*
X022466Y021921D01*
X022391Y021846D01*
X022316Y021846D01*
X022241Y021921D01*
X020471Y019665D02*
X020396Y019665D01*
X020096Y019966D01*
X020020Y019966D01*
X020020Y019665D01*
X020020Y019355D02*
X020471Y019355D01*
X020471Y019205D02*
X020471Y019505D01*
X020171Y019205D02*
X020020Y019355D01*
X020096Y019045D02*
X020246Y019045D01*
X020321Y018970D01*
X020321Y018745D01*
X020471Y018745D02*
X020020Y018745D01*
X020020Y018970D01*
X020096Y019045D01*
X020020Y018584D02*
X020020Y018434D01*
X020020Y018509D02*
X020396Y018509D01*
X020471Y018434D01*
X020471Y018359D01*
X020396Y018284D01*
X020626Y016317D02*
X020701Y016317D01*
X020776Y016242D01*
X020776Y016092D01*
X020701Y016016D01*
X020626Y016016D01*
X020550Y016092D01*
X020550Y016242D01*
X020626Y016317D01*
X020776Y016242D02*
X020851Y016317D01*
X020926Y016317D01*
X021001Y016242D01*
X021001Y016092D01*
X020926Y016016D01*
X020851Y016016D01*
X020776Y016092D01*
X020776Y015856D02*
X020851Y015781D01*
X020851Y015556D01*
X021001Y015556D02*
X020550Y015556D01*
X020550Y015781D01*
X020626Y015856D01*
X020776Y015856D01*
X020550Y015396D02*
X020550Y015246D01*
X020550Y015321D02*
X020926Y015321D01*
X021001Y015246D01*
X021001Y015171D01*
X020926Y015096D01*
X027520Y015776D02*
X027520Y015926D01*
X027520Y015851D02*
X027896Y015851D01*
X027971Y015776D01*
X027971Y015701D01*
X027896Y015626D01*
X027971Y016086D02*
X027520Y016086D01*
X027520Y016311D01*
X027596Y016386D01*
X027746Y016386D01*
X027821Y016311D01*
X027821Y016086D01*
X027971Y016546D02*
X027971Y016847D01*
X027971Y016697D02*
X027520Y016697D01*
X027671Y016546D01*
X027671Y017007D02*
X027596Y017007D01*
X027520Y017082D01*
X027520Y017232D01*
X027596Y017307D01*
X027671Y017307D01*
X027746Y017232D01*
X027746Y017082D01*
X027671Y017007D01*
X027746Y017082D02*
X027821Y017007D01*
X027896Y017007D01*
X027971Y017082D01*
X027971Y017232D01*
X027896Y017307D01*
X027821Y017307D01*
X027746Y017232D01*
X037050Y017281D02*
X037126Y017356D01*
X037276Y017356D01*
X037351Y017281D01*
X037351Y017056D01*
X037501Y017056D02*
X037050Y017056D01*
X037050Y017281D01*
X037126Y017516D02*
X037201Y017516D01*
X037276Y017592D01*
X037276Y017817D01*
X037426Y017817D02*
X037126Y017817D01*
X037050Y017742D01*
X037050Y017592D01*
X037126Y017516D01*
X037426Y017516D02*
X037501Y017592D01*
X037501Y017742D01*
X037426Y017817D01*
X037050Y016896D02*
X037050Y016746D01*
X037050Y016821D02*
X037426Y016821D01*
X037501Y016746D01*
X037501Y016671D01*
X037426Y016596D01*
X011971Y017359D02*
X011971Y017434D01*
X011896Y017509D01*
X011520Y017509D01*
X011520Y017434D02*
X011520Y017584D01*
X011520Y017745D02*
X011520Y017970D01*
X011596Y018045D01*
X011746Y018045D01*
X011821Y017970D01*
X011821Y017745D01*
X011971Y017745D02*
X011520Y017745D01*
X011971Y017359D02*
X011896Y017284D01*
X011971Y018205D02*
X011971Y018505D01*
X011971Y018355D02*
X011520Y018355D01*
X011671Y018205D01*
X011746Y018665D02*
X011596Y018815D01*
X011520Y018966D01*
X011746Y018890D02*
X011746Y018665D01*
X011896Y018665D01*
X011971Y018740D01*
X011971Y018890D01*
X011896Y018966D01*
X011821Y018966D01*
X011746Y018890D01*
X007772Y015796D02*
X007772Y015346D01*
X007622Y015346D02*
X007922Y015346D01*
X007622Y015646D02*
X007772Y015796D01*
X007312Y015796D02*
X007312Y015346D01*
X007162Y015346D02*
X007462Y015346D01*
X007162Y015646D02*
X007312Y015796D01*
X007001Y015721D02*
X007001Y015571D01*
X006926Y015496D01*
X006701Y015496D01*
X006622Y015421D02*
X006922Y015721D01*
X006922Y015421D01*
X006847Y015346D01*
X006697Y015346D01*
X006622Y015421D01*
X006622Y015721D01*
X006697Y015796D01*
X006847Y015796D01*
X006922Y015721D01*
X006926Y015796D02*
X007001Y015721D01*
X006926Y015796D02*
X006701Y015796D01*
X006701Y015346D01*
X006462Y015346D02*
X006162Y015346D01*
X006241Y015421D02*
X006316Y015346D01*
X006391Y015346D01*
X006466Y015421D01*
X006466Y015796D01*
X006391Y015796D02*
X006541Y015796D01*
X006312Y015796D02*
X006312Y015346D01*
X006162Y015646D02*
X006312Y015796D01*
X006001Y015721D02*
X006001Y015571D01*
X005926Y015496D01*
X005701Y015496D01*
X005701Y015346D02*
X005701Y015796D01*
X005926Y015796D01*
X006001Y015721D01*
X005541Y015796D02*
X005391Y015796D01*
X005466Y015796D02*
X005466Y015421D01*
X005391Y015346D01*
X005316Y015346D01*
X005241Y015421D01*
X002571Y015036D02*
X002571Y014736D01*
X002571Y014886D02*
X002120Y014886D01*
X002271Y014736D01*
X002196Y014576D02*
X002120Y014501D01*
X002120Y014351D01*
X002196Y014276D01*
X002496Y014276D01*
X002571Y014351D01*
X002571Y014501D01*
X002496Y014576D01*
X005170Y021926D02*
X005170Y022151D01*
X005246Y022226D01*
X005396Y022226D01*
X005471Y022151D01*
X005471Y021926D01*
X005621Y021926D02*
X005170Y021926D01*
X005471Y022076D02*
X005621Y022226D01*
X005621Y022386D02*
X005321Y022686D01*
X005246Y022686D01*
X005170Y022611D01*
X005170Y022461D01*
X005246Y022386D01*
X005621Y022386D02*
X005621Y022686D01*
X005321Y023405D02*
X004870Y023405D01*
X004870Y023630D01*
X004946Y023705D01*
X005096Y023705D01*
X005171Y023630D01*
X005171Y023405D01*
X005171Y023555D02*
X005321Y023705D01*
X005321Y023865D02*
X005321Y024166D01*
X005321Y024016D02*
X004870Y024016D01*
X005021Y023865D01*
X008670Y023930D02*
X008670Y023780D01*
X008746Y023705D01*
X009046Y023705D01*
X009121Y023780D01*
X009121Y023930D01*
X009046Y024005D01*
X009121Y024165D02*
X008821Y024466D01*
X008746Y024466D01*
X008670Y024391D01*
X008670Y024240D01*
X008746Y024165D01*
X008746Y024005D02*
X008670Y023930D01*
X009121Y024165D02*
X009121Y024466D01*
D12*
X003496Y015731D02*
X003246Y015731D01*
X002996Y015731D01*
X002996Y015481D02*
X003246Y015481D01*
X003496Y015481D01*
D13*
X003246Y015481D02*
X003246Y015001D01*
X003246Y015731D02*
X003246Y016201D01*
X003746Y016951D02*
X003744Y016968D01*
X003740Y016985D01*
X003733Y017001D01*
X003723Y017015D01*
X003710Y017028D01*
X003696Y017038D01*
X003680Y017045D01*
X003663Y017049D01*
X003646Y017051D01*
X002846Y017051D01*
X002829Y017049D01*
X002812Y017045D01*
X002796Y017038D01*
X002782Y017028D01*
X002769Y017015D01*
X002759Y017001D01*
X002752Y016985D01*
X002748Y016968D01*
X002746Y016951D01*
X002746Y014251D01*
X002748Y014234D01*
X002752Y014217D01*
X002759Y014201D01*
X002769Y014187D01*
X002782Y014174D01*
X002796Y014164D01*
X002812Y014157D01*
X002829Y014153D01*
X002846Y014151D01*
X003646Y014151D01*
X003663Y014153D01*
X003680Y014157D01*
X003696Y014164D01*
X003710Y014174D01*
X003723Y014187D01*
X003733Y014201D01*
X003740Y014217D01*
X003744Y014234D01*
X003746Y014251D01*
X003746Y016951D01*
X005496Y015101D02*
X005246Y014851D01*
X005246Y014351D01*
X005496Y014101D01*
X005996Y014101D01*
X006246Y014351D01*
X006496Y014101D01*
X006996Y014101D01*
X007246Y014351D01*
X007246Y014851D01*
X006996Y015101D01*
X006496Y015101D01*
X006246Y014851D01*
X006246Y014351D01*
X006246Y014851D01*
X005996Y015101D01*
X005496Y015101D01*
X009246Y014851D02*
X009246Y014351D01*
X009496Y014101D01*
X010996Y014101D01*
X011246Y014351D01*
X011246Y014851D01*
X010996Y015101D01*
X009496Y015101D01*
X009246Y014851D01*
X009496Y015101D02*
X009246Y015351D01*
X009246Y015851D01*
X009496Y016101D01*
X010996Y016101D01*
X011246Y015851D01*
X011246Y015351D01*
X010996Y015101D01*
X010996Y016101D02*
X011246Y016351D01*
X011246Y016851D01*
X010996Y017101D01*
X009496Y017101D01*
X009246Y016851D01*
X009246Y016351D01*
X009496Y016101D01*
X009496Y017101D02*
X009246Y017351D01*
X009246Y017851D01*
X009496Y018101D01*
X010996Y018101D01*
X011246Y017851D01*
X011246Y017351D01*
X010996Y017101D01*
X010996Y018101D02*
X011246Y018351D01*
X011246Y018851D01*
X010996Y019101D01*
X009496Y019101D01*
X009246Y018851D01*
X009246Y018351D01*
X009496Y018101D01*
X006596Y021851D02*
X005896Y021851D01*
X005879Y021853D01*
X005862Y021857D01*
X005846Y021864D01*
X005832Y021874D01*
X005819Y021887D01*
X005809Y021901D01*
X005802Y021917D01*
X005798Y021934D01*
X005796Y021951D01*
X005796Y022101D01*
X005846Y022151D01*
X005846Y024051D01*
X005796Y024101D01*
X005796Y024251D01*
X005798Y024268D01*
X005802Y024285D01*
X005809Y024301D01*
X005819Y024315D01*
X005832Y024328D01*
X005846Y024338D01*
X005862Y024345D01*
X005879Y024349D01*
X005896Y024351D01*
X006596Y024351D01*
X006613Y024349D01*
X006630Y024345D01*
X006646Y024338D01*
X006660Y024328D01*
X006673Y024315D01*
X006683Y024301D01*
X006690Y024285D01*
X006694Y024268D01*
X006696Y024251D01*
X006696Y024101D01*
X006646Y024051D01*
X006646Y022151D01*
X006696Y022101D01*
X006696Y021951D01*
X006694Y021934D01*
X006690Y021917D01*
X006683Y021901D01*
X006673Y021887D01*
X006660Y021874D01*
X006646Y021864D01*
X006630Y021857D01*
X006613Y021853D01*
X006596Y021851D01*
X004696Y021951D02*
X004696Y022101D01*
X004646Y022151D01*
X004646Y024051D01*
X004696Y024101D01*
X004696Y024251D01*
X004694Y024268D01*
X004690Y024285D01*
X004683Y024301D01*
X004673Y024315D01*
X004660Y024328D01*
X004646Y024338D01*
X004630Y024345D01*
X004613Y024349D01*
X004596Y024351D01*
X003896Y024351D01*
X003879Y024349D01*
X003862Y024345D01*
X003846Y024338D01*
X003832Y024328D01*
X003819Y024315D01*
X003809Y024301D01*
X003802Y024285D01*
X003798Y024268D01*
X003796Y024251D01*
X003796Y024101D01*
X003846Y024051D01*
X003846Y022151D01*
X003796Y022101D01*
X003796Y021951D01*
X003798Y021934D01*
X003802Y021917D01*
X003809Y021901D01*
X003819Y021887D01*
X003832Y021874D01*
X003846Y021864D01*
X003862Y021857D01*
X003879Y021853D01*
X003896Y021851D01*
X004596Y021851D01*
X004613Y021853D01*
X004630Y021857D01*
X004646Y021864D01*
X004660Y021874D01*
X004673Y021887D01*
X004683Y021901D01*
X004690Y021917D01*
X004694Y021934D01*
X004696Y021951D01*
X007246Y025601D02*
X007248Y025664D01*
X007254Y025726D01*
X007264Y025788D01*
X007277Y025850D01*
X007295Y025910D01*
X007316Y025969D01*
X007341Y026027D01*
X007370Y026083D01*
X007402Y026137D01*
X007437Y026189D01*
X007475Y026238D01*
X007517Y026286D01*
X007561Y026330D01*
X007609Y026372D01*
X007658Y026410D01*
X007710Y026445D01*
X007764Y026477D01*
X007820Y026506D01*
X007878Y026531D01*
X007937Y026552D01*
X007997Y026570D01*
X008059Y026583D01*
X008121Y026593D01*
X008183Y026599D01*
X008246Y026601D01*
X008309Y026599D01*
X008371Y026593D01*
X008433Y026583D01*
X008495Y026570D01*
X008555Y026552D01*
X008614Y026531D01*
X008672Y026506D01*
X008728Y026477D01*
X008782Y026445D01*
X008834Y026410D01*
X008883Y026372D01*
X008931Y026330D01*
X008975Y026286D01*
X009017Y026238D01*
X009055Y026189D01*
X009090Y026137D01*
X009122Y026083D01*
X009151Y026027D01*
X009176Y025969D01*
X009197Y025910D01*
X009215Y025850D01*
X009228Y025788D01*
X009238Y025726D01*
X009244Y025664D01*
X009246Y025601D01*
X009244Y025538D01*
X009238Y025476D01*
X009228Y025414D01*
X009215Y025352D01*
X009197Y025292D01*
X009176Y025233D01*
X009151Y025175D01*
X009122Y025119D01*
X009090Y025065D01*
X009055Y025013D01*
X009017Y024964D01*
X008975Y024916D01*
X008931Y024872D01*
X008883Y024830D01*
X008834Y024792D01*
X008782Y024757D01*
X008728Y024725D01*
X008672Y024696D01*
X008614Y024671D01*
X008555Y024650D01*
X008495Y024632D01*
X008433Y024619D01*
X008371Y024609D01*
X008309Y024603D01*
X008246Y024601D01*
X008183Y024603D01*
X008121Y024609D01*
X008059Y024619D01*
X007997Y024632D01*
X007937Y024650D01*
X007878Y024671D01*
X007820Y024696D01*
X007764Y024725D01*
X007710Y024757D01*
X007658Y024792D01*
X007609Y024830D01*
X007561Y024872D01*
X007517Y024916D01*
X007475Y024964D01*
X007437Y025013D01*
X007402Y025065D01*
X007370Y025119D01*
X007341Y025175D01*
X007316Y025233D01*
X007295Y025292D01*
X007277Y025352D01*
X007264Y025414D01*
X007254Y025476D01*
X007248Y025538D01*
X007246Y025601D01*
X008846Y026001D02*
X009046Y026001D01*
X008946Y026101D02*
X008946Y025901D01*
X011746Y025851D02*
X011746Y026351D01*
X011996Y026601D01*
X012496Y026601D01*
X012746Y026351D01*
X012746Y025851D01*
X012496Y025601D01*
X012746Y025351D01*
X012746Y024851D01*
X012496Y024601D01*
X012746Y024351D01*
X012746Y023851D01*
X012496Y023601D01*
X011996Y023601D01*
X011746Y023851D01*
X011746Y024351D01*
X011996Y024601D01*
X011746Y024851D01*
X011746Y025351D01*
X011996Y025601D01*
X011746Y025851D01*
X011996Y025601D02*
X012496Y025601D01*
X012496Y024601D02*
X011996Y024601D01*
X013746Y024851D02*
X013996Y024601D01*
X013746Y024351D01*
X013746Y023851D01*
X013996Y023601D01*
X014496Y023601D01*
X014746Y023851D01*
X014746Y024351D01*
X014496Y024601D01*
X013996Y024601D01*
X013746Y024851D02*
X013746Y025351D01*
X013996Y025601D01*
X013746Y025851D01*
X013746Y026351D01*
X013996Y026601D01*
X014496Y026601D01*
X014746Y026351D01*
X014746Y025851D01*
X014496Y025601D01*
X014746Y025351D01*
X014746Y024851D01*
X014496Y024601D01*
X014496Y025601D02*
X013996Y025601D01*
X015746Y025851D02*
X015746Y026351D01*
X015996Y026601D01*
X016496Y026601D01*
X016746Y026351D01*
X016746Y025851D01*
X016496Y025601D01*
X016746Y025351D01*
X016746Y024851D01*
X016496Y024601D01*
X016746Y024351D01*
X016746Y023851D01*
X016496Y023601D01*
X015996Y023601D01*
X015746Y023851D01*
X015746Y024351D01*
X015996Y024601D01*
X015746Y024851D01*
X015746Y025351D01*
X015996Y025601D01*
X015746Y025851D01*
X015996Y025601D02*
X016496Y025601D01*
X016496Y024601D02*
X015996Y024601D01*
X017746Y024851D02*
X017996Y024601D01*
X017746Y024351D01*
X017746Y023851D01*
X017996Y023601D01*
X018496Y023601D01*
X018746Y023851D01*
X018746Y024351D01*
X018496Y024601D01*
X017996Y024601D01*
X017746Y024851D02*
X017746Y025351D01*
X017996Y025601D01*
X017746Y025851D01*
X017746Y026351D01*
X017996Y026601D01*
X018496Y026601D01*
X018746Y026351D01*
X018746Y025851D01*
X018496Y025601D01*
X018746Y025351D01*
X018746Y024851D01*
X018496Y024601D01*
X018496Y025601D02*
X017996Y025601D01*
X019746Y025851D02*
X019746Y026351D01*
X019996Y026601D01*
X020496Y026601D01*
X020746Y026351D01*
X020746Y025851D01*
X020496Y025601D01*
X020746Y025351D01*
X020746Y024851D01*
X020496Y024601D01*
X020746Y024351D01*
X020746Y023851D01*
X020496Y023601D01*
X019996Y023601D01*
X019746Y023851D01*
X019746Y024351D01*
X019996Y024601D01*
X019746Y024851D01*
X019746Y025351D01*
X019996Y025601D01*
X019746Y025851D01*
X019996Y025601D02*
X020496Y025601D01*
X020496Y024601D02*
X019996Y024601D01*
X021746Y024851D02*
X021996Y024601D01*
X021746Y024351D01*
X021746Y023851D01*
X021996Y023601D01*
X022496Y023601D01*
X022746Y023851D01*
X022746Y024351D01*
X022496Y024601D01*
X021996Y024601D01*
X021746Y024851D02*
X021746Y025351D01*
X021996Y025601D01*
X021746Y025851D01*
X021746Y026351D01*
X021996Y026601D01*
X022496Y026601D01*
X022746Y026351D01*
X022746Y025851D01*
X022496Y025601D01*
X022746Y025351D01*
X022746Y024851D01*
X022496Y024601D01*
X022496Y025601D02*
X021996Y025601D01*
X022496Y021601D02*
X022246Y021351D01*
X022246Y020851D01*
X022496Y020601D01*
X022996Y020601D01*
X023246Y020851D01*
X023496Y020601D01*
X023996Y020601D01*
X024246Y020851D01*
X024246Y021351D01*
X023996Y021601D01*
X023496Y021601D01*
X023246Y021351D01*
X023246Y020851D01*
X023246Y021351D02*
X022996Y021601D01*
X022496Y021601D01*
X024246Y021351D02*
X024496Y021601D01*
X024996Y021601D01*
X025246Y021351D01*
X025496Y021601D01*
X025996Y021601D01*
X026246Y021351D01*
X026246Y020851D01*
X025996Y020601D01*
X025496Y020601D01*
X025246Y020851D01*
X024996Y020601D01*
X024496Y020601D01*
X024246Y020851D01*
X025246Y020851D02*
X025246Y021351D01*
X022246Y018851D02*
X022246Y018351D01*
X021996Y018101D01*
X022246Y017851D01*
X022246Y017351D01*
X021996Y017101D01*
X022246Y016851D01*
X022246Y016351D01*
X021996Y016101D01*
X022246Y015851D01*
X022246Y015351D01*
X021996Y015101D01*
X021496Y015101D01*
X021246Y015351D01*
X021246Y015851D01*
X021496Y016101D01*
X021246Y016351D01*
X021246Y016851D01*
X021496Y017101D01*
X021996Y017101D01*
X021496Y017101D02*
X021246Y017351D01*
X021246Y017851D01*
X021496Y018101D01*
X021246Y018351D01*
X021246Y018851D01*
X021496Y019101D01*
X021996Y019101D01*
X022246Y018851D01*
X021996Y018101D02*
X021496Y018101D01*
X019746Y018351D02*
X019496Y018101D01*
X017996Y018101D01*
X017746Y017851D01*
X017746Y017351D01*
X017996Y017101D01*
X019496Y017101D01*
X019746Y016851D01*
X019746Y016351D01*
X019496Y016101D01*
X019746Y015851D01*
X019746Y015351D01*
X019496Y015101D01*
X017996Y015101D01*
X017746Y015351D01*
X017746Y015851D01*
X017996Y016101D01*
X019496Y016101D01*
X019496Y017101D02*
X019746Y017351D01*
X019746Y017851D01*
X019496Y018101D01*
X019746Y018351D02*
X019746Y018851D01*
X019496Y019101D01*
X017996Y019101D01*
X017746Y018851D01*
X017746Y018351D01*
X017996Y018101D01*
X017996Y017101D02*
X017746Y016851D01*
X017746Y016351D01*
X017996Y016101D01*
X017996Y019101D02*
X017746Y019351D01*
X017746Y019851D01*
X017996Y020101D01*
X019496Y020101D01*
X019746Y019851D01*
X019746Y019351D01*
X019496Y019101D01*
X021496Y016101D02*
X021996Y016101D01*
X028246Y015851D02*
X028246Y016351D01*
X028496Y016601D01*
X029996Y016601D01*
X030246Y016851D01*
X030246Y017351D01*
X029996Y017601D01*
X028496Y017601D01*
X028246Y017851D01*
X028246Y018351D01*
X028496Y018601D01*
X029996Y018601D01*
X030246Y018851D01*
X030246Y019351D01*
X029996Y019601D01*
X030246Y019851D01*
X030246Y020351D01*
X029996Y020601D01*
X028496Y020601D01*
X028246Y020351D01*
X028246Y019851D01*
X028496Y019601D01*
X029996Y019601D01*
X029996Y018601D02*
X030246Y018351D01*
X030246Y017851D01*
X029996Y017601D01*
X029996Y016601D02*
X030246Y016351D01*
X030246Y015851D01*
X029996Y015601D01*
X028496Y015601D01*
X028246Y015851D01*
X028496Y016601D02*
X028246Y016851D01*
X028246Y017351D01*
X028496Y017601D01*
X028496Y018601D02*
X028246Y018851D01*
X028246Y019351D01*
X028496Y019601D01*
X033096Y024101D02*
X033846Y024101D01*
X033848Y024062D01*
X033854Y024023D01*
X033863Y023985D01*
X033876Y023948D01*
X033893Y023912D01*
X033913Y023879D01*
X033937Y023847D01*
X033963Y023818D01*
X033992Y023792D01*
X034024Y023768D01*
X034057Y023748D01*
X034093Y023731D01*
X034130Y023718D01*
X034168Y023709D01*
X034207Y023703D01*
X034246Y023701D01*
X034285Y023703D01*
X034324Y023709D01*
X034362Y023718D01*
X034399Y023731D01*
X034435Y023748D01*
X034468Y023768D01*
X034500Y023792D01*
X034529Y023818D01*
X034555Y023847D01*
X034579Y023879D01*
X034599Y023912D01*
X034616Y023948D01*
X034629Y023985D01*
X034638Y024023D01*
X034644Y024062D01*
X034646Y024101D01*
X035396Y024101D01*
X035396Y014101D01*
X033096Y014101D01*
X033096Y024101D01*
X037746Y020351D02*
X037996Y020601D01*
X038496Y020601D01*
X038746Y020351D01*
X038746Y019851D01*
X038496Y019601D01*
X038746Y019351D01*
X038746Y018851D01*
X038496Y018601D01*
X038746Y018351D01*
X038746Y017851D01*
X038496Y017601D01*
X038746Y017351D01*
X038746Y016851D01*
X038496Y016601D01*
X037996Y016601D01*
X037746Y016851D01*
X037746Y017351D01*
X037996Y017601D01*
X037746Y017851D01*
X037746Y018351D01*
X037996Y018601D01*
X038496Y018601D01*
X037996Y018601D02*
X037746Y018851D01*
X037746Y019351D01*
X037996Y019601D01*
X037746Y019851D01*
X037746Y020351D01*
X037996Y019601D02*
X038496Y019601D01*
X038496Y017601D02*
X037996Y017601D01*
D14*
X006246Y021681D03*
X004246Y021681D03*
X004246Y024521D03*
X006246Y024521D03*
D15*
X033066Y024731D02*
X033219Y024731D01*
X033143Y024731D02*
X033143Y024271D01*
X033219Y024271D02*
X033066Y024271D01*
X033373Y024347D02*
X033449Y024271D01*
X033603Y024271D01*
X033680Y024347D01*
X033833Y024271D02*
X034140Y024578D01*
X034140Y024654D01*
X034063Y024731D01*
X033910Y024731D01*
X033833Y024654D01*
X033680Y024654D02*
X033603Y024731D01*
X033449Y024731D01*
X033373Y024654D01*
X033373Y024347D01*
X033833Y024271D02*
X034140Y024271D01*
M02*
