G75*
G70*
%OFA0B0*%
%FSLAX24Y24*%
%IPPOS*%
%LPD*%
%AMOC8*
5,1,8,0,0,1.08239X$1,22.5*
%
%ADD10C,0.0660*%
%ADD11OC8,0.0520*%
%ADD12C,0.0520*%
%ADD13C,0.0520*%
%ADD14C,0.0600*%
%ADD15OC8,0.0600*%
%ADD16C,0.0394*%
D10*
X002246Y023778D02*
X002246Y024438D01*
X003246Y024438D02*
X003246Y023778D01*
X004246Y023778D02*
X004246Y024438D01*
D11*
X004246Y019608D03*
X006246Y019608D03*
X008246Y019708D03*
X006246Y015608D03*
X004246Y015608D03*
X003246Y011108D03*
X003246Y009108D03*
X019746Y010108D03*
X021746Y010108D03*
X023746Y010108D03*
X025746Y010108D03*
X025746Y006108D03*
X023746Y006108D03*
X021746Y006108D03*
X019746Y006108D03*
D12*
X008246Y020508D03*
D13*
X019746Y014368D02*
X019746Y013848D01*
X020746Y013848D02*
X020746Y014368D01*
X021746Y014368D02*
X021746Y013848D01*
X022746Y013848D02*
X022746Y014368D01*
X023746Y014368D02*
X023746Y013848D01*
X024746Y013848D02*
X024746Y014368D01*
X025746Y014368D02*
X025746Y013848D01*
X025746Y011368D02*
X025746Y010848D01*
X024746Y010848D02*
X024746Y011368D01*
X023746Y011368D02*
X023746Y010848D01*
X022746Y010848D02*
X022746Y011368D01*
X021746Y011368D02*
X021746Y010848D01*
X020746Y010848D02*
X020746Y011368D01*
X019746Y011368D02*
X019746Y010848D01*
X032486Y011108D02*
X033006Y011108D01*
X033006Y012108D02*
X032486Y012108D01*
X032486Y013108D02*
X033006Y013108D01*
X033006Y014108D02*
X032486Y014108D01*
X032486Y015108D02*
X033006Y015108D01*
X033006Y016108D02*
X032486Y016108D01*
X032486Y017108D02*
X033006Y017108D01*
X033006Y018108D02*
X032486Y018108D01*
X035486Y018108D02*
X036006Y018108D01*
X036006Y017108D02*
X035486Y017108D01*
X035486Y016108D02*
X036006Y016108D01*
X036006Y015108D02*
X035486Y015108D01*
X035486Y014108D02*
X036006Y014108D01*
X036006Y013108D02*
X035486Y013108D01*
X035486Y012108D02*
X036006Y012108D01*
X036006Y011108D02*
X035486Y011108D01*
X035486Y010108D02*
X036006Y010108D01*
X036006Y009108D02*
X035486Y009108D01*
X033006Y009108D02*
X032486Y009108D01*
X032486Y010108D02*
X033006Y010108D01*
D14*
X037946Y011608D02*
X038546Y011608D01*
X038546Y012608D02*
X037946Y012608D01*
X037946Y013608D02*
X038546Y013608D01*
X038546Y014608D02*
X037946Y014608D01*
X027746Y004908D02*
X027746Y004308D01*
X026746Y004308D02*
X026746Y004908D01*
X025746Y004908D02*
X025746Y004308D01*
X024746Y004308D02*
X024746Y004908D01*
X024746Y002908D02*
X024746Y002308D01*
X025746Y002308D02*
X025746Y002908D01*
X026746Y002908D02*
X026746Y002308D01*
X027746Y002308D02*
X027746Y002908D01*
X022546Y018608D02*
X021946Y018608D01*
X021946Y019608D02*
X022546Y019608D01*
X022546Y020608D02*
X021946Y020608D01*
X020546Y020608D02*
X019946Y020608D01*
X019946Y019608D02*
X020546Y019608D01*
X020546Y018608D02*
X019946Y018608D01*
X018546Y018608D02*
X017946Y018608D01*
X017946Y019608D02*
X018546Y019608D01*
X018546Y020608D02*
X017946Y020608D01*
X016546Y020608D02*
X015946Y020608D01*
X015946Y019608D02*
X016546Y019608D01*
X016546Y018608D02*
X015946Y018608D01*
X014546Y018608D02*
X013946Y018608D01*
X013946Y019608D02*
X014546Y019608D01*
X014546Y020608D02*
X013946Y020608D01*
X012546Y020608D02*
X011946Y020608D01*
X011946Y019608D02*
X012546Y019608D01*
X012546Y018608D02*
X011946Y018608D01*
D15*
X012246Y015108D03*
X012246Y014108D03*
X012246Y013108D03*
X012246Y012108D03*
X012246Y011108D03*
X011246Y011108D03*
X011246Y012108D03*
X011246Y013108D03*
X011246Y014108D03*
X011246Y015108D03*
X006746Y009108D03*
X005746Y009108D03*
X016246Y008108D03*
X017246Y008108D03*
X017246Y007108D03*
X016246Y007108D03*
X016246Y006108D03*
X017246Y006108D03*
X017246Y005108D03*
X016246Y005108D03*
X016246Y004108D03*
X017246Y004108D03*
X028746Y012608D03*
X029746Y012608D03*
X029746Y013608D03*
X028746Y013608D03*
X028746Y014608D03*
X029746Y014608D03*
X029746Y015608D03*
X028746Y015608D03*
X028746Y016608D03*
X029746Y016608D03*
D16*
X017246Y001108D02*
X006746Y001108D01*
X006746Y009108D01*
X012246Y009108D01*
X012246Y011108D01*
X018246Y011108D01*
X018246Y012608D01*
X022746Y012608D01*
X022746Y011108D01*
X021746Y011108D02*
X021746Y010108D01*
X020746Y011108D02*
X019746Y011108D01*
X019746Y010108D01*
X017246Y010108D01*
X017246Y008108D01*
X017246Y007108D02*
X018746Y007108D01*
X018746Y008608D01*
X025746Y008608D01*
X025746Y010108D01*
X025746Y011108D01*
X024746Y011108D01*
X023746Y011108D02*
X023746Y010108D01*
X025746Y007608D02*
X019746Y007608D01*
X019746Y006108D01*
X019746Y004108D01*
X017246Y004108D01*
X017246Y001108D01*
X032746Y001108D01*
X032746Y009108D01*
X032746Y005608D01*
X032746Y009108D02*
X034246Y009108D01*
X034246Y018108D01*
X032746Y018108D01*
X028746Y018108D01*
X028746Y016608D01*
X029746Y015608D02*
X030746Y015608D01*
X030746Y017108D01*
X032746Y017108D01*
X032746Y015108D02*
X031746Y015108D01*
X031746Y014608D01*
X029746Y014608D01*
X029746Y013608D02*
X031746Y013608D01*
X031746Y013108D01*
X032746Y013108D01*
X030746Y012608D02*
X030746Y011108D01*
X032746Y011108D01*
X030746Y012608D02*
X029746Y012608D01*
X027746Y010608D02*
X027246Y010608D01*
X027246Y015608D01*
X025246Y015608D01*
X025246Y020608D01*
X035746Y020608D01*
X035746Y018108D01*
X035746Y016108D02*
X038246Y016108D01*
X038246Y014608D01*
X038246Y013608D02*
X037746Y013608D01*
X037246Y014108D01*
X035746Y014108D01*
X037746Y012608D02*
X038246Y012608D01*
X037746Y012608D02*
X037246Y012108D01*
X035746Y012108D01*
X035746Y010108D02*
X038246Y010108D01*
X038246Y011608D01*
X027746Y010608D02*
X027746Y004608D01*
X027746Y002608D01*
X025746Y002608D02*
X025746Y004608D01*
X025746Y006108D01*
X025746Y007608D01*
X023746Y006108D02*
X023746Y004608D01*
X024746Y004608D01*
X024746Y002608D02*
X021746Y002608D01*
X021746Y006108D01*
X016746Y013108D02*
X022246Y018608D01*
X022246Y019608D02*
X022746Y019608D01*
X022246Y019608D02*
X020246Y019608D01*
X018246Y019608D01*
X016246Y019608D01*
X014246Y019608D01*
X012246Y019608D01*
X008246Y019608D01*
X008246Y019708D01*
X008246Y019608D02*
X008246Y015608D01*
X006246Y015608D01*
X006246Y011108D01*
X003246Y011108D01*
X003246Y009108D02*
X002246Y009108D01*
X002246Y024108D01*
X003246Y024108D02*
X003246Y018108D01*
X007246Y018108D01*
X007246Y020608D01*
X008246Y020508D01*
X007246Y020608D02*
X012246Y020608D01*
X014246Y020608D01*
X016246Y020608D01*
X018246Y020608D01*
X020246Y020608D01*
X022246Y020608D01*
X025246Y020608D01*
X020246Y018108D02*
X016246Y014108D01*
X012246Y014108D01*
X012246Y015108D02*
X015746Y015108D01*
X018246Y018608D01*
X016246Y018608D02*
X015246Y016608D01*
X011246Y016608D01*
X011246Y015108D01*
X011246Y014108D02*
X010246Y014108D01*
X010246Y017608D01*
X014246Y017608D01*
X014246Y018608D01*
X012246Y018608D02*
X009246Y018608D01*
X009246Y012108D01*
X011246Y012108D01*
X012246Y013108D02*
X016746Y013108D01*
X022746Y014108D02*
X022746Y015608D01*
X025246Y015608D01*
X006746Y011108D02*
X006746Y009108D01*
X005746Y009108D02*
X003246Y009108D01*
X006246Y011108D02*
X006746Y011108D01*
X004246Y015608D02*
X003246Y015608D01*
X003246Y018108D01*
X004246Y019608D02*
X004246Y024108D01*
X004246Y019608D02*
X006246Y019608D01*
M02*
