G75*
G70*
%OFA0B0*%
%FSLAX24Y24*%
%IPPOS*%
%LPD*%
%AMOC8*
5,1,8,0,0,1.08239X$1,22.5*
%
%ADD10C,0.0660*%
%ADD11OC8,0.0520*%
%ADD12C,0.0520*%
%ADD13C,0.0520*%
%ADD14C,0.0600*%
%ADD15OC8,0.0600*%
D10*
X002246Y029271D02*
X002246Y029931D01*
X003246Y029931D02*
X003246Y029271D01*
X004246Y029271D02*
X004246Y029931D01*
D11*
X003246Y014601D03*
X003246Y016601D03*
X004246Y021101D03*
X006246Y021101D03*
X006246Y025101D03*
X004246Y025101D03*
X008246Y025201D03*
D12*
X008246Y026001D03*
D13*
X032486Y023601D02*
X033006Y023601D01*
X033006Y022601D02*
X032486Y022601D01*
X032486Y021601D02*
X033006Y021601D01*
X033006Y020601D02*
X032486Y020601D01*
X032486Y019601D02*
X033006Y019601D01*
X033006Y018601D02*
X032486Y018601D01*
X032486Y017601D02*
X033006Y017601D01*
X033006Y016601D02*
X032486Y016601D01*
X032486Y015601D02*
X033006Y015601D01*
X033006Y014601D02*
X032486Y014601D01*
X035486Y014601D02*
X036006Y014601D01*
X036006Y015601D02*
X035486Y015601D01*
X035486Y016601D02*
X036006Y016601D01*
X036006Y017601D02*
X035486Y017601D01*
X035486Y018601D02*
X036006Y018601D01*
X036006Y019601D02*
X035486Y019601D01*
X035486Y020601D02*
X036006Y020601D01*
X036006Y021601D02*
X035486Y021601D01*
X035486Y022601D02*
X036006Y022601D01*
X036006Y023601D02*
X035486Y023601D01*
D14*
X037946Y020101D02*
X038546Y020101D01*
X038546Y019101D02*
X037946Y019101D01*
X037946Y018101D02*
X038546Y018101D01*
X038546Y017101D02*
X037946Y017101D01*
X025746Y020801D02*
X025746Y021401D01*
X024746Y021401D02*
X024746Y020801D01*
X023746Y020801D02*
X023746Y021401D01*
X022746Y021401D02*
X022746Y020801D01*
X022046Y018601D02*
X021446Y018601D01*
X021446Y017601D02*
X022046Y017601D01*
X022046Y016601D02*
X021446Y016601D01*
X021446Y015601D02*
X022046Y015601D01*
X021946Y024101D02*
X022546Y024101D01*
X022546Y025101D02*
X021946Y025101D01*
X021946Y026101D02*
X022546Y026101D01*
X020546Y026101D02*
X019946Y026101D01*
X019946Y025101D02*
X020546Y025101D01*
X020546Y024101D02*
X019946Y024101D01*
X018546Y024101D02*
X017946Y024101D01*
X017946Y025101D02*
X018546Y025101D01*
X018546Y026101D02*
X017946Y026101D01*
X016546Y026101D02*
X015946Y026101D01*
X015946Y025101D02*
X016546Y025101D01*
X016546Y024101D02*
X015946Y024101D01*
X014546Y024101D02*
X013946Y024101D01*
X013946Y025101D02*
X014546Y025101D01*
X014546Y026101D02*
X013946Y026101D01*
X012546Y026101D02*
X011946Y026101D01*
X011946Y025101D02*
X012546Y025101D01*
X012546Y024101D02*
X011946Y024101D01*
D15*
X010746Y018601D03*
X009746Y018601D03*
X009746Y017601D03*
X010746Y017601D03*
X010746Y016601D03*
X009746Y016601D03*
X009746Y015601D03*
X010746Y015601D03*
X010746Y014601D03*
X009746Y014601D03*
X006746Y014601D03*
X005746Y014601D03*
X018246Y015601D03*
X018246Y016601D03*
X019246Y016601D03*
X019246Y015601D03*
X019246Y017601D03*
X018246Y017601D03*
X018246Y018601D03*
X018246Y019601D03*
X019246Y019601D03*
X019246Y018601D03*
X028746Y019101D03*
X029746Y019101D03*
X029746Y020101D03*
X028746Y020101D03*
X028746Y018101D03*
X029746Y018101D03*
X029746Y017101D03*
X028746Y017101D03*
X028746Y016101D03*
X029746Y016101D03*
M02*
