G75*
G70*
%OFA0B0*%
%FSLAX24Y24*%
%IPPOS*%
%LPD*%
%AMOC8*
5,1,8,0,0,1.08239X$1,22.5*
%
%ADD10C,0.0000*%
%ADD11C,0.0050*%
%ADD12C,0.0120*%
%ADD13C,0.0060*%
%ADD14R,0.0240X0.0340*%
%ADD15C,0.0040*%
D10*
X000746Y000108D02*
X000746Y025604D01*
X040116Y025604D01*
X040116Y000108D01*
X000746Y000108D01*
X002596Y030008D02*
X002598Y030058D01*
X002604Y030108D01*
X002614Y030158D01*
X002627Y030206D01*
X002644Y030254D01*
X002665Y030300D01*
X002689Y030344D01*
X002717Y030386D01*
X002748Y030426D01*
X002782Y030463D01*
X002819Y030498D01*
X002858Y030529D01*
X002899Y030558D01*
X002943Y030583D01*
X002989Y030605D01*
X003036Y030623D01*
X003084Y030637D01*
X003133Y030648D01*
X003183Y030655D01*
X003233Y030658D01*
X003284Y030657D01*
X003334Y030652D01*
X003384Y030643D01*
X003432Y030631D01*
X003480Y030614D01*
X003526Y030594D01*
X003571Y030571D01*
X003614Y030544D01*
X003654Y030514D01*
X003692Y030481D01*
X003727Y030445D01*
X003760Y030406D01*
X003789Y030365D01*
X003815Y030322D01*
X003838Y030277D01*
X003857Y030230D01*
X003872Y030182D01*
X003884Y030133D01*
X003892Y030083D01*
X003896Y030033D01*
X003896Y029983D01*
X003892Y029933D01*
X003884Y029883D01*
X003872Y029834D01*
X003857Y029786D01*
X003838Y029739D01*
X003815Y029694D01*
X003789Y029651D01*
X003760Y029610D01*
X003727Y029571D01*
X003692Y029535D01*
X003654Y029502D01*
X003614Y029472D01*
X003571Y029445D01*
X003526Y029422D01*
X003480Y029402D01*
X003432Y029385D01*
X003384Y029373D01*
X003334Y029364D01*
X003284Y029359D01*
X003233Y029358D01*
X003183Y029361D01*
X003133Y029368D01*
X003084Y029379D01*
X003036Y029393D01*
X002989Y029411D01*
X002943Y029433D01*
X002899Y029458D01*
X002858Y029487D01*
X002819Y029518D01*
X002782Y029553D01*
X002748Y029590D01*
X002717Y029630D01*
X002689Y029672D01*
X002665Y029716D01*
X002644Y029762D01*
X002627Y029810D01*
X002614Y029858D01*
X002604Y029908D01*
X002598Y029958D01*
X002596Y030008D01*
D11*
X012990Y020928D02*
X013216Y020702D01*
X013216Y021003D01*
X013441Y020928D02*
X012990Y020928D01*
X013066Y020542D02*
X013216Y020542D01*
X013291Y020467D01*
X013291Y020242D01*
X013441Y020242D02*
X012990Y020242D01*
X012990Y020467D01*
X013066Y020542D01*
X012990Y020082D02*
X012990Y019932D01*
X012990Y020007D02*
X013366Y020007D01*
X013441Y019932D01*
X013441Y019857D01*
X013366Y019782D01*
X014990Y019932D02*
X014990Y020082D01*
X014990Y020007D02*
X015366Y020007D01*
X015441Y019932D01*
X015441Y019857D01*
X015366Y019782D01*
X015441Y020242D02*
X014990Y020242D01*
X014990Y020467D01*
X015066Y020542D01*
X015216Y020542D01*
X015291Y020467D01*
X015291Y020242D01*
X015366Y020702D02*
X015441Y020777D01*
X015441Y020928D01*
X015366Y021003D01*
X015216Y021003D01*
X015141Y020928D01*
X015141Y020853D01*
X015216Y020702D01*
X014990Y020702D01*
X014990Y021003D01*
X016990Y021003D02*
X017066Y020853D01*
X017216Y020702D01*
X017216Y020928D01*
X017291Y021003D01*
X017366Y021003D01*
X017441Y020928D01*
X017441Y020777D01*
X017366Y020702D01*
X017216Y020702D01*
X017216Y020542D02*
X017291Y020467D01*
X017291Y020242D01*
X017441Y020242D02*
X016990Y020242D01*
X016990Y020467D01*
X017066Y020542D01*
X017216Y020542D01*
X016990Y020082D02*
X016990Y019932D01*
X016990Y020007D02*
X017366Y020007D01*
X017441Y019932D01*
X017441Y019857D01*
X017366Y019782D01*
X018990Y019932D02*
X018990Y020082D01*
X018990Y020007D02*
X019366Y020007D01*
X019441Y019932D01*
X019441Y019857D01*
X019366Y019782D01*
X019441Y020242D02*
X018990Y020242D01*
X018990Y020467D01*
X019066Y020542D01*
X019216Y020542D01*
X019291Y020467D01*
X019291Y020242D01*
X019441Y020702D02*
X019441Y021003D01*
X019441Y020853D02*
X018990Y020853D01*
X019141Y020702D01*
X020990Y020777D02*
X021066Y020702D01*
X020990Y020777D02*
X020990Y020928D01*
X021066Y021003D01*
X021141Y021003D01*
X021441Y020702D01*
X021441Y021003D01*
X021216Y020542D02*
X021291Y020467D01*
X021291Y020242D01*
X021441Y020242D02*
X020990Y020242D01*
X020990Y020467D01*
X021066Y020542D01*
X021216Y020542D01*
X020990Y020082D02*
X020990Y019932D01*
X020990Y020007D02*
X021366Y020007D01*
X021441Y019932D01*
X021441Y019857D01*
X021366Y019782D01*
X022990Y019932D02*
X022990Y020082D01*
X022990Y020007D02*
X023366Y020007D01*
X023441Y019932D01*
X023441Y019857D01*
X023366Y019782D01*
X023441Y020242D02*
X022990Y020242D01*
X022990Y020467D01*
X023066Y020542D01*
X023216Y020542D01*
X023291Y020467D01*
X023291Y020242D01*
X023366Y020702D02*
X023441Y020777D01*
X023441Y020928D01*
X023366Y021003D01*
X023291Y021003D01*
X023216Y020928D01*
X023216Y020853D01*
X023216Y020928D02*
X023141Y021003D01*
X023066Y021003D01*
X022990Y020928D01*
X022990Y020777D01*
X023066Y020702D01*
X030520Y016898D02*
X030596Y016973D01*
X030671Y016973D01*
X030746Y016898D01*
X030746Y016747D01*
X030671Y016672D01*
X030596Y016672D01*
X030520Y016747D01*
X030520Y016898D01*
X030746Y016898D02*
X030821Y016973D01*
X030896Y016973D01*
X030971Y016898D01*
X030971Y016747D01*
X030896Y016672D01*
X030821Y016672D01*
X030746Y016747D01*
X030971Y016512D02*
X030971Y016212D01*
X030971Y016362D02*
X030520Y016362D01*
X030671Y016212D01*
X030746Y016052D02*
X030821Y015977D01*
X030821Y015752D01*
X030971Y015752D02*
X030520Y015752D01*
X030520Y015977D01*
X030596Y016052D01*
X030746Y016052D01*
X030520Y015592D02*
X030520Y015441D01*
X030520Y015516D02*
X030896Y015516D01*
X030971Y015441D01*
X030971Y015366D01*
X030896Y015291D01*
X026871Y013598D02*
X026871Y013447D01*
X026796Y013372D01*
X026796Y013212D02*
X026871Y013137D01*
X026871Y012987D01*
X026796Y012912D01*
X026496Y012912D01*
X026420Y012987D01*
X026420Y013137D01*
X026496Y013212D01*
X026496Y013372D02*
X026420Y013447D01*
X026420Y013598D01*
X026496Y013673D01*
X026571Y013673D01*
X026646Y013598D01*
X026721Y013673D01*
X026796Y013673D01*
X026871Y013598D01*
X026646Y013598D02*
X026646Y013523D01*
X026871Y012755D02*
X026871Y012605D01*
X026871Y012680D02*
X026420Y012680D01*
X026420Y012605D02*
X026420Y012755D01*
X024596Y009173D02*
X024596Y008872D01*
X024370Y009098D01*
X024821Y009098D01*
X024821Y008712D02*
X024671Y008562D01*
X024671Y008637D02*
X024671Y008412D01*
X024821Y008412D02*
X024370Y008412D01*
X024370Y008637D01*
X024446Y008712D01*
X024596Y008712D01*
X024671Y008637D01*
X024670Y007693D02*
X024746Y007543D01*
X024896Y007393D01*
X024896Y007618D01*
X024971Y007693D01*
X025046Y007693D01*
X025121Y007618D01*
X025121Y007468D01*
X025046Y007393D01*
X024896Y007393D01*
X024896Y007233D02*
X024971Y007158D01*
X024971Y006933D01*
X025121Y006933D02*
X024670Y006933D01*
X024670Y007158D01*
X024746Y007233D01*
X024896Y007233D01*
X024971Y007083D02*
X025121Y007233D01*
X025237Y005803D02*
X025387Y005803D01*
X025462Y005728D01*
X025462Y005653D01*
X025387Y005578D01*
X025237Y005578D01*
X025162Y005653D01*
X025162Y005728D01*
X025237Y005803D01*
X025237Y005578D02*
X025162Y005503D01*
X025162Y005428D01*
X025237Y005353D01*
X025387Y005353D01*
X025462Y005428D01*
X025462Y005503D01*
X025387Y005578D01*
X025001Y005578D02*
X025001Y005728D01*
X024926Y005803D01*
X024701Y005803D01*
X024701Y005353D01*
X024701Y005503D02*
X024926Y005503D01*
X025001Y005578D01*
X024541Y005803D02*
X024391Y005803D01*
X024466Y005803D02*
X024466Y005428D01*
X024391Y005353D01*
X024316Y005353D01*
X024241Y005428D01*
X024391Y003803D02*
X024541Y003803D01*
X024466Y003803D02*
X024466Y003428D01*
X024391Y003353D01*
X024316Y003353D01*
X024241Y003428D01*
X024701Y003503D02*
X024926Y003503D01*
X025001Y003578D01*
X025001Y003728D01*
X024926Y003803D01*
X024701Y003803D01*
X024701Y003353D01*
X025162Y003353D02*
X025162Y003428D01*
X025462Y003728D01*
X025462Y003803D01*
X025162Y003803D01*
X022821Y008412D02*
X022370Y008412D01*
X022370Y008637D01*
X022446Y008712D01*
X022596Y008712D01*
X022671Y008637D01*
X022671Y008412D01*
X022671Y008562D02*
X022821Y008712D01*
X022746Y008872D02*
X022821Y008948D01*
X022821Y009098D01*
X022746Y009173D01*
X022671Y009173D01*
X022596Y009098D01*
X022596Y009023D01*
X022596Y009098D02*
X022521Y009173D01*
X022446Y009173D01*
X022370Y009098D01*
X022370Y008948D01*
X022446Y008872D01*
X020821Y008948D02*
X020746Y008872D01*
X020821Y008948D02*
X020821Y009098D01*
X020746Y009173D01*
X020596Y009173D01*
X020521Y009098D01*
X020521Y009023D01*
X020596Y008872D01*
X020370Y008872D01*
X020370Y009173D01*
X020446Y008712D02*
X020596Y008712D01*
X020671Y008637D01*
X020671Y008412D01*
X020821Y008412D02*
X020370Y008412D01*
X020370Y008637D01*
X020446Y008712D01*
X020671Y008562D02*
X020821Y008712D01*
X018471Y008172D02*
X018396Y008172D01*
X018096Y008473D01*
X018020Y008473D01*
X018020Y008172D01*
X018020Y007862D02*
X018471Y007862D01*
X018471Y007712D02*
X018471Y008012D01*
X018171Y007712D02*
X018020Y007862D01*
X018096Y007552D02*
X018246Y007552D01*
X018321Y007477D01*
X018321Y007252D01*
X018471Y007252D02*
X018020Y007252D01*
X018020Y007477D01*
X018096Y007552D01*
X018020Y007092D02*
X018020Y006941D01*
X018020Y007016D02*
X018396Y007016D01*
X018471Y006941D01*
X018471Y006866D01*
X018396Y006791D01*
X013396Y013791D02*
X013471Y013866D01*
X013471Y013941D01*
X013396Y014016D01*
X013020Y014016D01*
X013020Y013941D02*
X013020Y014092D01*
X013020Y014252D02*
X013020Y014477D01*
X013096Y014552D01*
X013246Y014552D01*
X013321Y014477D01*
X013321Y014252D01*
X013471Y014252D02*
X013020Y014252D01*
X013171Y014712D02*
X013020Y014862D01*
X013471Y014862D01*
X013471Y014712D02*
X013471Y015012D01*
X013396Y015172D02*
X013246Y015172D01*
X013246Y015398D01*
X013321Y015473D01*
X013396Y015473D01*
X013471Y015398D01*
X013471Y015247D01*
X013396Y015172D01*
X013246Y015172D02*
X013096Y015323D01*
X013020Y015473D01*
X009121Y018287D02*
X009046Y018212D01*
X008746Y018212D01*
X008670Y018287D01*
X008670Y018437D01*
X008746Y018512D01*
X008746Y018672D02*
X008670Y018748D01*
X008670Y018898D01*
X008746Y018973D01*
X008821Y018973D01*
X009121Y018672D01*
X009121Y018973D01*
X009046Y018512D02*
X009121Y018437D01*
X009121Y018287D01*
X005621Y017193D02*
X005621Y016893D01*
X005321Y017193D01*
X005246Y017193D01*
X005170Y017118D01*
X005170Y016968D01*
X005246Y016893D01*
X005246Y016733D02*
X005396Y016733D01*
X005471Y016658D01*
X005471Y016433D01*
X005621Y016433D02*
X005170Y016433D01*
X005170Y016658D01*
X005246Y016733D01*
X005471Y016583D02*
X005621Y016733D01*
X005321Y017912D02*
X004870Y017912D01*
X004870Y018137D01*
X004946Y018212D01*
X005096Y018212D01*
X005171Y018137D01*
X005171Y017912D01*
X005171Y018062D02*
X005321Y018212D01*
X005321Y018372D02*
X005321Y018673D01*
X005321Y018523D02*
X004870Y018523D01*
X005021Y018372D01*
X005391Y010303D02*
X005541Y010303D01*
X005466Y010303D02*
X005466Y009928D01*
X005391Y009853D01*
X005316Y009853D01*
X005241Y009928D01*
X005701Y009853D02*
X005701Y010303D01*
X005926Y010303D01*
X006001Y010228D01*
X006001Y010078D01*
X005926Y010003D01*
X005701Y010003D01*
X006162Y010153D02*
X006312Y010303D01*
X006312Y009853D01*
X006316Y009853D02*
X006391Y009853D01*
X006466Y009928D01*
X006466Y010303D01*
X006391Y010303D02*
X006541Y010303D01*
X006622Y010228D02*
X006697Y010303D01*
X006847Y010303D01*
X006922Y010228D01*
X006622Y009928D01*
X006697Y009853D01*
X006847Y009853D01*
X006922Y009928D01*
X006922Y010228D01*
X006926Y010303D02*
X007001Y010228D01*
X007001Y010078D01*
X006926Y010003D01*
X006701Y010003D01*
X006622Y009928D02*
X006622Y010228D01*
X006701Y010303D02*
X006926Y010303D01*
X006701Y010303D02*
X006701Y009853D01*
X006462Y009853D02*
X006162Y009853D01*
X006241Y009928D02*
X006316Y009853D01*
X007162Y009853D02*
X007462Y009853D01*
X007312Y009853D02*
X007312Y010303D01*
X007162Y010153D01*
X007622Y010153D02*
X007772Y010303D01*
X007772Y009853D01*
X007622Y009853D02*
X007922Y009853D01*
X002571Y009543D02*
X002571Y009243D01*
X002571Y009393D02*
X002120Y009393D01*
X002271Y009243D01*
X002196Y009083D02*
X002120Y009008D01*
X002120Y008858D01*
X002196Y008783D01*
X002496Y008783D01*
X002571Y008858D01*
X002571Y009008D01*
X002496Y009083D01*
X037050Y011253D02*
X037050Y011403D01*
X037050Y011328D02*
X037426Y011328D01*
X037501Y011253D01*
X037501Y011178D01*
X037426Y011103D01*
X037501Y011563D02*
X037050Y011563D01*
X037050Y011788D01*
X037126Y011863D01*
X037276Y011863D01*
X037351Y011788D01*
X037351Y011563D01*
X037426Y012024D02*
X037501Y012099D01*
X037501Y012249D01*
X037426Y012324D01*
X037126Y012324D01*
X037050Y012249D01*
X037050Y012099D01*
X037126Y012024D01*
X037201Y012024D01*
X037276Y012099D01*
X037276Y012324D01*
D12*
X003496Y010238D02*
X003246Y010238D01*
X002996Y010238D01*
X002996Y009988D02*
X003246Y009988D01*
X003496Y009988D01*
D13*
X003246Y009988D02*
X003246Y009508D01*
X003246Y010238D02*
X003246Y010708D01*
X003746Y011458D02*
X003744Y011475D01*
X003740Y011492D01*
X003733Y011508D01*
X003723Y011522D01*
X003710Y011535D01*
X003696Y011545D01*
X003680Y011552D01*
X003663Y011556D01*
X003646Y011558D01*
X002846Y011558D01*
X002829Y011556D01*
X002812Y011552D01*
X002796Y011545D01*
X002782Y011535D01*
X002769Y011522D01*
X002759Y011508D01*
X002752Y011492D01*
X002748Y011475D01*
X002746Y011458D01*
X002746Y008758D01*
X002748Y008741D01*
X002752Y008724D01*
X002759Y008708D01*
X002769Y008694D01*
X002782Y008681D01*
X002796Y008671D01*
X002812Y008664D01*
X002829Y008660D01*
X002846Y008658D01*
X003646Y008658D01*
X003663Y008660D01*
X003680Y008664D01*
X003696Y008671D01*
X003710Y008681D01*
X003723Y008694D01*
X003733Y008708D01*
X003740Y008724D01*
X003744Y008741D01*
X003746Y008758D01*
X003746Y011458D01*
X005496Y009608D02*
X005246Y009358D01*
X005246Y008858D01*
X005496Y008608D01*
X005996Y008608D01*
X006246Y008858D01*
X006496Y008608D01*
X006996Y008608D01*
X007246Y008858D01*
X007246Y009358D01*
X006996Y009608D01*
X006496Y009608D01*
X006246Y009358D01*
X006246Y008858D01*
X006246Y009358D01*
X005996Y009608D01*
X005496Y009608D01*
X010746Y010858D02*
X010746Y011358D01*
X010996Y011608D01*
X012496Y011608D01*
X012746Y011358D01*
X012746Y010858D01*
X012496Y010608D01*
X010996Y010608D01*
X010746Y010858D01*
X010996Y011608D02*
X010746Y011858D01*
X010746Y012358D01*
X010996Y012608D01*
X012496Y012608D01*
X012746Y012358D01*
X012746Y011858D01*
X012496Y011608D01*
X012496Y012608D02*
X012746Y012858D01*
X012746Y013358D01*
X012496Y013608D01*
X010996Y013608D01*
X010746Y013358D01*
X010746Y012858D01*
X010996Y012608D01*
X010996Y013608D02*
X010746Y013858D01*
X010746Y014358D01*
X010996Y014608D01*
X012496Y014608D01*
X012746Y014358D01*
X012746Y013858D01*
X012496Y013608D01*
X012496Y014608D02*
X012746Y014858D01*
X012746Y015358D01*
X012496Y015608D01*
X010996Y015608D01*
X010746Y015358D01*
X010746Y014858D01*
X010996Y014608D01*
X011996Y018108D02*
X011746Y018358D01*
X011746Y018858D01*
X011996Y019108D01*
X011746Y019358D01*
X011746Y019858D01*
X011996Y020108D01*
X011746Y020358D01*
X011746Y020858D01*
X011996Y021108D01*
X012496Y021108D01*
X012746Y020858D01*
X012746Y020358D01*
X012496Y020108D01*
X012746Y019858D01*
X012746Y019358D01*
X012496Y019108D01*
X012746Y018858D01*
X012746Y018358D01*
X012496Y018108D01*
X011996Y018108D01*
X011996Y019108D02*
X012496Y019108D01*
X012496Y020108D02*
X011996Y020108D01*
X013746Y020358D02*
X013996Y020108D01*
X013746Y019858D01*
X013746Y019358D01*
X013996Y019108D01*
X013746Y018858D01*
X013746Y018358D01*
X013996Y018108D01*
X014496Y018108D01*
X014746Y018358D01*
X014746Y018858D01*
X014496Y019108D01*
X013996Y019108D01*
X014496Y019108D02*
X014746Y019358D01*
X014746Y019858D01*
X014496Y020108D01*
X013996Y020108D01*
X013746Y020358D02*
X013746Y020858D01*
X013996Y021108D01*
X014496Y021108D01*
X014746Y020858D01*
X014746Y020358D01*
X014496Y020108D01*
X015746Y020358D02*
X015746Y020858D01*
X015996Y021108D01*
X016496Y021108D01*
X016746Y020858D01*
X016746Y020358D01*
X016496Y020108D01*
X016746Y019858D01*
X016746Y019358D01*
X016496Y019108D01*
X016746Y018858D01*
X016746Y018358D01*
X016496Y018108D01*
X015996Y018108D01*
X015746Y018358D01*
X015746Y018858D01*
X015996Y019108D01*
X015746Y019358D01*
X015746Y019858D01*
X015996Y020108D01*
X015746Y020358D01*
X015996Y020108D02*
X016496Y020108D01*
X016496Y019108D02*
X015996Y019108D01*
X017746Y019358D02*
X017996Y019108D01*
X017746Y018858D01*
X017746Y018358D01*
X017996Y018108D01*
X018496Y018108D01*
X018746Y018358D01*
X018746Y018858D01*
X018496Y019108D01*
X017996Y019108D01*
X017746Y019358D02*
X017746Y019858D01*
X017996Y020108D01*
X017746Y020358D01*
X017746Y020858D01*
X017996Y021108D01*
X018496Y021108D01*
X018746Y020858D01*
X018746Y020358D01*
X018496Y020108D01*
X018746Y019858D01*
X018746Y019358D01*
X018496Y019108D01*
X018496Y020108D02*
X017996Y020108D01*
X019746Y020358D02*
X019996Y020108D01*
X019746Y019858D01*
X019746Y019358D01*
X019996Y019108D01*
X019746Y018858D01*
X019746Y018358D01*
X019996Y018108D01*
X020496Y018108D01*
X020746Y018358D01*
X020746Y018858D01*
X020496Y019108D01*
X019996Y019108D01*
X020496Y019108D02*
X020746Y019358D01*
X020746Y019858D01*
X020496Y020108D01*
X019996Y020108D01*
X019746Y020358D02*
X019746Y020858D01*
X019996Y021108D01*
X020496Y021108D01*
X020746Y020858D01*
X020746Y020358D01*
X020496Y020108D01*
X021746Y020358D02*
X021996Y020108D01*
X021746Y019858D01*
X021746Y019358D01*
X021996Y019108D01*
X021746Y018858D01*
X021746Y018358D01*
X021996Y018108D01*
X022496Y018108D01*
X022746Y018358D01*
X022746Y018858D01*
X022496Y019108D01*
X021996Y019108D01*
X022496Y019108D02*
X022746Y019358D01*
X022746Y019858D01*
X022496Y020108D01*
X021996Y020108D01*
X021746Y020358D02*
X021746Y020858D01*
X021996Y021108D01*
X022496Y021108D01*
X022746Y020858D01*
X022746Y020358D01*
X022496Y020108D01*
X028246Y016858D02*
X028246Y016358D01*
X028496Y016108D01*
X029996Y016108D01*
X030246Y015858D01*
X030246Y015358D01*
X029996Y015108D01*
X028496Y015108D01*
X028246Y014858D01*
X028246Y014358D01*
X028496Y014108D01*
X029996Y014108D01*
X030246Y013858D01*
X030246Y013358D01*
X029996Y013108D01*
X030246Y012858D01*
X030246Y012358D01*
X029996Y012108D01*
X028496Y012108D01*
X028246Y012358D01*
X028246Y012858D01*
X028496Y013108D01*
X029996Y013108D01*
X029996Y014108D02*
X030246Y014358D01*
X030246Y014858D01*
X029996Y015108D01*
X029996Y016108D02*
X030246Y016358D01*
X030246Y016858D01*
X029996Y017108D01*
X028496Y017108D01*
X028246Y016858D01*
X028496Y016108D02*
X028246Y015858D01*
X028246Y015358D01*
X028496Y015108D01*
X028496Y014108D02*
X028246Y013858D01*
X028246Y013358D01*
X028496Y013108D01*
X026246Y013008D02*
X026246Y013758D01*
X019246Y013758D01*
X019246Y011458D01*
X026246Y011458D01*
X026246Y012208D01*
X026207Y012210D01*
X026168Y012216D01*
X026130Y012225D01*
X026093Y012238D01*
X026057Y012255D01*
X026024Y012275D01*
X025992Y012299D01*
X025963Y012325D01*
X025937Y012354D01*
X025913Y012386D01*
X025893Y012419D01*
X025876Y012455D01*
X025863Y012492D01*
X025854Y012530D01*
X025848Y012569D01*
X025846Y012608D01*
X025848Y012647D01*
X025854Y012686D01*
X025863Y012724D01*
X025876Y012761D01*
X025893Y012797D01*
X025913Y012830D01*
X025937Y012862D01*
X025963Y012891D01*
X025992Y012917D01*
X026024Y012941D01*
X026057Y012961D01*
X026093Y012978D01*
X026130Y012991D01*
X026168Y013000D01*
X026207Y013006D01*
X026246Y013008D01*
X026096Y009358D02*
X025396Y009358D01*
X025379Y009356D01*
X025362Y009352D01*
X025346Y009345D01*
X025332Y009335D01*
X025319Y009322D01*
X025309Y009308D01*
X025302Y009292D01*
X025298Y009275D01*
X025296Y009258D01*
X025296Y009108D01*
X025346Y009058D01*
X025346Y007158D01*
X025296Y007108D01*
X025296Y006958D01*
X025298Y006941D01*
X025302Y006924D01*
X025309Y006908D01*
X025319Y006894D01*
X025332Y006881D01*
X025346Y006871D01*
X025362Y006864D01*
X025379Y006860D01*
X025396Y006858D01*
X026096Y006858D01*
X026113Y006860D01*
X026130Y006864D01*
X026146Y006871D01*
X026160Y006881D01*
X026173Y006894D01*
X026183Y006908D01*
X026190Y006924D01*
X026194Y006941D01*
X026196Y006958D01*
X026196Y007108D01*
X026146Y007158D01*
X026146Y009058D01*
X026196Y009108D01*
X026196Y009258D01*
X026194Y009275D01*
X026190Y009292D01*
X026183Y009308D01*
X026173Y009322D01*
X026160Y009335D01*
X026146Y009345D01*
X026130Y009352D01*
X026113Y009356D01*
X026096Y009358D01*
X024196Y009258D02*
X024196Y009108D01*
X024146Y009058D01*
X024146Y007158D01*
X024196Y007108D01*
X024196Y006958D01*
X024194Y006941D01*
X024190Y006924D01*
X024183Y006908D01*
X024173Y006894D01*
X024160Y006881D01*
X024146Y006871D01*
X024130Y006864D01*
X024113Y006860D01*
X024096Y006858D01*
X023396Y006858D01*
X023379Y006860D01*
X023362Y006864D01*
X023346Y006871D01*
X023332Y006881D01*
X023319Y006894D01*
X023309Y006908D01*
X023302Y006924D01*
X023298Y006941D01*
X023296Y006958D01*
X023296Y007108D01*
X023346Y007158D01*
X023346Y009058D01*
X023296Y009108D01*
X023296Y009258D01*
X023298Y009275D01*
X023302Y009292D01*
X023309Y009308D01*
X023319Y009322D01*
X023332Y009335D01*
X023346Y009345D01*
X023362Y009352D01*
X023379Y009356D01*
X023396Y009358D01*
X024096Y009358D01*
X024113Y009356D01*
X024130Y009352D01*
X024146Y009345D01*
X024160Y009335D01*
X024173Y009322D01*
X024183Y009308D01*
X024190Y009292D01*
X024194Y009275D01*
X024196Y009258D01*
X022196Y009258D02*
X022196Y009108D01*
X022146Y009058D01*
X022146Y007158D01*
X022196Y007108D01*
X022196Y006958D01*
X022194Y006941D01*
X022190Y006924D01*
X022183Y006908D01*
X022173Y006894D01*
X022160Y006881D01*
X022146Y006871D01*
X022130Y006864D01*
X022113Y006860D01*
X022096Y006858D01*
X021396Y006858D01*
X021379Y006860D01*
X021362Y006864D01*
X021346Y006871D01*
X021332Y006881D01*
X021319Y006894D01*
X021309Y006908D01*
X021302Y006924D01*
X021298Y006941D01*
X021296Y006958D01*
X021296Y007108D01*
X021346Y007158D01*
X021346Y009058D01*
X021296Y009108D01*
X021296Y009258D01*
X021298Y009275D01*
X021302Y009292D01*
X021309Y009308D01*
X021319Y009322D01*
X021332Y009335D01*
X021346Y009345D01*
X021362Y009352D01*
X021379Y009356D01*
X021396Y009358D01*
X022096Y009358D01*
X022113Y009356D01*
X022130Y009352D01*
X022146Y009345D01*
X022160Y009335D01*
X022173Y009322D01*
X022183Y009308D01*
X022190Y009292D01*
X022194Y009275D01*
X022196Y009258D01*
X020196Y009258D02*
X020196Y009108D01*
X020146Y009058D01*
X020146Y007158D01*
X020196Y007108D01*
X020196Y006958D01*
X020194Y006941D01*
X020190Y006924D01*
X020183Y006908D01*
X020173Y006894D01*
X020160Y006881D01*
X020146Y006871D01*
X020130Y006864D01*
X020113Y006860D01*
X020096Y006858D01*
X019396Y006858D01*
X019379Y006860D01*
X019362Y006864D01*
X019346Y006871D01*
X019332Y006881D01*
X019319Y006894D01*
X019309Y006908D01*
X019302Y006924D01*
X019298Y006941D01*
X019296Y006958D01*
X019296Y007108D01*
X019346Y007158D01*
X019346Y009058D01*
X019296Y009108D01*
X019296Y009258D01*
X019298Y009275D01*
X019302Y009292D01*
X019309Y009308D01*
X019319Y009322D01*
X019332Y009335D01*
X019346Y009345D01*
X019362Y009352D01*
X019379Y009356D01*
X019396Y009358D01*
X020096Y009358D01*
X020113Y009356D01*
X020130Y009352D01*
X020146Y009345D01*
X020160Y009335D01*
X020173Y009322D01*
X020183Y009308D01*
X020190Y009292D01*
X020194Y009275D01*
X020196Y009258D01*
X017746Y008358D02*
X017746Y007858D01*
X017496Y007608D01*
X015996Y007608D01*
X015746Y007358D01*
X015746Y006858D01*
X015996Y006608D01*
X017496Y006608D01*
X017746Y006358D01*
X017746Y005858D01*
X017496Y005608D01*
X015996Y005608D01*
X015746Y005358D01*
X015746Y004858D01*
X015996Y004608D01*
X015746Y004358D01*
X015746Y003858D01*
X015996Y003608D01*
X017496Y003608D01*
X017746Y003858D01*
X017746Y004358D01*
X017496Y004608D01*
X015996Y004608D01*
X015996Y005608D02*
X015746Y005858D01*
X015746Y006358D01*
X015996Y006608D01*
X015996Y007608D02*
X015746Y007858D01*
X015746Y008358D01*
X015996Y008608D01*
X017496Y008608D01*
X017746Y008358D01*
X017496Y007608D02*
X017746Y007358D01*
X017746Y006858D01*
X017496Y006608D01*
X017496Y005608D02*
X017746Y005358D01*
X017746Y004858D01*
X017496Y004608D01*
X024246Y004358D02*
X024496Y004108D01*
X024996Y004108D01*
X025246Y004358D01*
X025496Y004108D01*
X025996Y004108D01*
X026246Y004358D01*
X026246Y004858D01*
X025996Y005108D01*
X025496Y005108D01*
X025246Y004858D01*
X025246Y004358D01*
X025246Y004858D02*
X024996Y005108D01*
X024496Y005108D01*
X024246Y004858D01*
X024246Y004358D01*
X024496Y003108D02*
X024246Y002858D01*
X024246Y002358D01*
X024496Y002108D01*
X024996Y002108D01*
X025246Y002358D01*
X025496Y002108D01*
X025996Y002108D01*
X026246Y002358D01*
X026246Y002858D01*
X025996Y003108D01*
X025496Y003108D01*
X025246Y002858D01*
X025246Y002358D01*
X025246Y002858D02*
X024996Y003108D01*
X024496Y003108D01*
X026246Y002858D02*
X026496Y003108D01*
X026996Y003108D01*
X027246Y002858D01*
X027496Y003108D01*
X027996Y003108D01*
X028246Y002858D01*
X028246Y002358D01*
X027996Y002108D01*
X027496Y002108D01*
X027246Y002358D01*
X026996Y002108D01*
X026496Y002108D01*
X026246Y002358D01*
X027246Y002358D02*
X027246Y002858D01*
X027496Y004108D02*
X027246Y004358D01*
X026996Y004108D01*
X026496Y004108D01*
X026246Y004358D01*
X026246Y004858D02*
X026496Y005108D01*
X026996Y005108D01*
X027246Y004858D01*
X027496Y005108D01*
X027996Y005108D01*
X028246Y004858D01*
X028246Y004358D01*
X027996Y004108D01*
X027496Y004108D01*
X027246Y004358D02*
X027246Y004858D01*
X033096Y008608D02*
X035396Y008608D01*
X035396Y018608D01*
X034646Y018608D01*
X034644Y018569D01*
X034638Y018530D01*
X034629Y018492D01*
X034616Y018455D01*
X034599Y018419D01*
X034579Y018386D01*
X034555Y018354D01*
X034529Y018325D01*
X034500Y018299D01*
X034468Y018275D01*
X034435Y018255D01*
X034399Y018238D01*
X034362Y018225D01*
X034324Y018216D01*
X034285Y018210D01*
X034246Y018208D01*
X034207Y018210D01*
X034168Y018216D01*
X034130Y018225D01*
X034093Y018238D01*
X034057Y018255D01*
X034024Y018275D01*
X033992Y018299D01*
X033963Y018325D01*
X033937Y018354D01*
X033913Y018386D01*
X033893Y018419D01*
X033876Y018455D01*
X033863Y018492D01*
X033854Y018530D01*
X033848Y018569D01*
X033846Y018608D01*
X033096Y018608D01*
X033096Y008608D01*
X037746Y011358D02*
X037996Y011108D01*
X038496Y011108D01*
X038746Y011358D01*
X038746Y011858D01*
X038496Y012108D01*
X038746Y012358D01*
X038746Y012858D01*
X038496Y013108D01*
X037996Y013108D01*
X037746Y012858D01*
X037746Y012358D01*
X037996Y012108D01*
X038496Y012108D01*
X037996Y012108D02*
X037746Y011858D01*
X037746Y011358D01*
X037996Y013108D02*
X037746Y013358D01*
X037746Y013858D01*
X037996Y014108D01*
X037746Y014358D01*
X037746Y014858D01*
X037996Y015108D01*
X038496Y015108D01*
X038746Y014858D01*
X038746Y014358D01*
X038496Y014108D01*
X038746Y013858D01*
X038746Y013358D01*
X038496Y013108D01*
X038496Y014108D02*
X037996Y014108D01*
X009046Y020508D02*
X008846Y020508D01*
X008946Y020608D02*
X008946Y020408D01*
X007246Y020108D02*
X007248Y020171D01*
X007254Y020233D01*
X007264Y020295D01*
X007277Y020357D01*
X007295Y020417D01*
X007316Y020476D01*
X007341Y020534D01*
X007370Y020590D01*
X007402Y020644D01*
X007437Y020696D01*
X007475Y020745D01*
X007517Y020793D01*
X007561Y020837D01*
X007609Y020879D01*
X007658Y020917D01*
X007710Y020952D01*
X007764Y020984D01*
X007820Y021013D01*
X007878Y021038D01*
X007937Y021059D01*
X007997Y021077D01*
X008059Y021090D01*
X008121Y021100D01*
X008183Y021106D01*
X008246Y021108D01*
X008309Y021106D01*
X008371Y021100D01*
X008433Y021090D01*
X008495Y021077D01*
X008555Y021059D01*
X008614Y021038D01*
X008672Y021013D01*
X008728Y020984D01*
X008782Y020952D01*
X008834Y020917D01*
X008883Y020879D01*
X008931Y020837D01*
X008975Y020793D01*
X009017Y020745D01*
X009055Y020696D01*
X009090Y020644D01*
X009122Y020590D01*
X009151Y020534D01*
X009176Y020476D01*
X009197Y020417D01*
X009215Y020357D01*
X009228Y020295D01*
X009238Y020233D01*
X009244Y020171D01*
X009246Y020108D01*
X009244Y020045D01*
X009238Y019983D01*
X009228Y019921D01*
X009215Y019859D01*
X009197Y019799D01*
X009176Y019740D01*
X009151Y019682D01*
X009122Y019626D01*
X009090Y019572D01*
X009055Y019520D01*
X009017Y019471D01*
X008975Y019423D01*
X008931Y019379D01*
X008883Y019337D01*
X008834Y019299D01*
X008782Y019264D01*
X008728Y019232D01*
X008672Y019203D01*
X008614Y019178D01*
X008555Y019157D01*
X008495Y019139D01*
X008433Y019126D01*
X008371Y019116D01*
X008309Y019110D01*
X008246Y019108D01*
X008183Y019110D01*
X008121Y019116D01*
X008059Y019126D01*
X007997Y019139D01*
X007937Y019157D01*
X007878Y019178D01*
X007820Y019203D01*
X007764Y019232D01*
X007710Y019264D01*
X007658Y019299D01*
X007609Y019337D01*
X007561Y019379D01*
X007517Y019423D01*
X007475Y019471D01*
X007437Y019520D01*
X007402Y019572D01*
X007370Y019626D01*
X007341Y019682D01*
X007316Y019740D01*
X007295Y019799D01*
X007277Y019859D01*
X007264Y019921D01*
X007254Y019983D01*
X007248Y020045D01*
X007246Y020108D01*
X006596Y018858D02*
X005896Y018858D01*
X005879Y018856D01*
X005862Y018852D01*
X005846Y018845D01*
X005832Y018835D01*
X005819Y018822D01*
X005809Y018808D01*
X005802Y018792D01*
X005798Y018775D01*
X005796Y018758D01*
X005796Y018608D01*
X005846Y018558D01*
X005846Y016658D01*
X005796Y016608D01*
X005796Y016458D01*
X005798Y016441D01*
X005802Y016424D01*
X005809Y016408D01*
X005819Y016394D01*
X005832Y016381D01*
X005846Y016371D01*
X005862Y016364D01*
X005879Y016360D01*
X005896Y016358D01*
X006596Y016358D01*
X006613Y016360D01*
X006630Y016364D01*
X006646Y016371D01*
X006660Y016381D01*
X006673Y016394D01*
X006683Y016408D01*
X006690Y016424D01*
X006694Y016441D01*
X006696Y016458D01*
X006696Y016608D01*
X006646Y016658D01*
X006646Y018558D01*
X006696Y018608D01*
X006696Y018758D01*
X006694Y018775D01*
X006690Y018792D01*
X006683Y018808D01*
X006673Y018822D01*
X006660Y018835D01*
X006646Y018845D01*
X006630Y018852D01*
X006613Y018856D01*
X006596Y018858D01*
X004696Y018758D02*
X004696Y018608D01*
X004646Y018558D01*
X004646Y016658D01*
X004696Y016608D01*
X004696Y016458D01*
X004694Y016441D01*
X004690Y016424D01*
X004683Y016408D01*
X004673Y016394D01*
X004660Y016381D01*
X004646Y016371D01*
X004630Y016364D01*
X004613Y016360D01*
X004596Y016358D01*
X003896Y016358D01*
X003879Y016360D01*
X003862Y016364D01*
X003846Y016371D01*
X003832Y016381D01*
X003819Y016394D01*
X003809Y016408D01*
X003802Y016424D01*
X003798Y016441D01*
X003796Y016458D01*
X003796Y016608D01*
X003846Y016658D01*
X003846Y018558D01*
X003796Y018608D01*
X003796Y018758D01*
X003798Y018775D01*
X003802Y018792D01*
X003809Y018808D01*
X003819Y018822D01*
X003832Y018835D01*
X003846Y018845D01*
X003862Y018852D01*
X003879Y018856D01*
X003896Y018858D01*
X004596Y018858D01*
X004613Y018856D01*
X004630Y018852D01*
X004646Y018845D01*
X004660Y018835D01*
X004673Y018822D01*
X004683Y018808D01*
X004690Y018792D01*
X004694Y018775D01*
X004696Y018758D01*
D14*
X004246Y019028D03*
X006246Y019028D03*
X006246Y016188D03*
X004246Y016188D03*
X019746Y009528D03*
X021746Y009528D03*
X023746Y009528D03*
X025746Y009528D03*
X025746Y006688D03*
X023746Y006688D03*
X021746Y006688D03*
X019746Y006688D03*
D15*
X033066Y018778D02*
X033219Y018778D01*
X033143Y018778D02*
X033143Y019238D01*
X033219Y019238D02*
X033066Y019238D01*
X033373Y019161D02*
X033373Y018855D01*
X033449Y018778D01*
X033603Y018778D01*
X033680Y018855D01*
X033833Y018778D02*
X034140Y019085D01*
X034140Y019161D01*
X034063Y019238D01*
X033910Y019238D01*
X033833Y019161D01*
X033680Y019161D02*
X033603Y019238D01*
X033449Y019238D01*
X033373Y019161D01*
X033833Y018778D02*
X034140Y018778D01*
M02*
